<svg id="visual" viewBox="0 0 900 100" width="900" height="100" xmlns="http://www.w3.org/2000/svg" xmlns:xlink="http://www.w3.org/1999/xlink" version="1.1"><rect x="0" y="0" width="900" height="100" fill="#eea1be"></rect><path d="M0 51L7.5 49.8C15 48.7 30 46.3 45 46.7C60 47 75 50 90 54.8C105 59.7 120 66.3 135 65.3C150 64.3 165 55.7 180 51.8C195 48 210 49 225 51.5C240 54 255 58 270 57.7C285 57.3 300 52.7 315 54.2C330 55.7 345 63.3 360 65.5C375 67.7 390 64.3 405 59.8C420 55.3 435 49.7 450 47.2C465 44.7 480 45.3 495 51C510 56.7 525 67.3 540 67C555 66.7 570 55.3 585 52C600 48.7 615 53.3 630 56.2C645 59 660 60 675 59.3C690 58.7 705 56.3 720 59.2C735 62 750 70 765 69.2C780 68.3 795 58.7 810 54.7C825 50.7 840 52.3 855 56C870 59.7 885 65.3 892.5 68.2L900 71L900 0L892.5 0C885 0 870 0 855 0C840 0 825 0 810 0C795 0 780 0 765 0C750 0 735 0 720 0C705 0 690 0 675 0C660 0 645 0 630 0C615 0 600 0 585 0C570 0 555 0 540 0C525 0 510 0 495 0C480 0 465 0 450 0C435 0 420 0 405 0C390 0 375 0 360 0C345 0 330 0 315 0C300 0 285 0 270 0C255 0 240 0 225 0C210 0 195 0 180 0C165 0 150 0 135 0C120 0 105 0 90 0C75 0 60 0 45 0C30 0 15 0 7.5 0L0 0Z" fill="#18033c"></path><path d="M0 50L7.5 49C15 48 30 46 45 47.3C60 48.7 75 53.3 90 51.5C105 49.7 120 41.3 135 39C150 36.7 165 40.3 180 41.3C195 42.3 210 40.7 225 38.3C240 36 255 33 270 31.5C285 30 300 30 315 32C330 34 345 38 360 40C375 42 390 42 405 43.3C420 44.7 435 47.3 450 49.3C465 51.3 480 52.7 495 51.3C510 50 525 46 540 43.3C555 40.7 570 39.3 585 38.5C600 37.7 615 37.3 630 37.5C645 37.7 660 38.3 675 41.2C690 44 705 49 720 52C735 55 750 56 765 53.7C780 51.3 795 45.7 810 41.8C825 38 840 36 855 36.5C870 37 885 40 892.5 41.5L900 43L900 0L892.5 0C885 0 870 0 855 0C840 0 825 0 810 0C795 0 780 0 765 0C750 0 735 0 720 0C705 0 690 0 675 0C660 0 645 0 630 0C615 0 600 0 585 0C570 0 555 0 540 0C525 0 510 0 495 0C480 0 465 0 450 0C435 0 420 0 405 0C390 0 375 0 360 0C345 0 330 0 315 0C300 0 285 0 270 0C255 0 240 0 225 0C210 0 195 0 180 0C165 0 150 0 135 0C120 0 105 0 90 0C75 0 60 0 45 0C30 0 15 0 7.5 0L0 0Z" fill="#2f098c"></path><path d="M0 14L7.5 17.3C15 20.7 30 27.3 45 29.2C60 31 75 28 90 25.8C105 23.7 120 22.3 135 23.8C150 25.3 165 29.7 180 28.7C195 27.7 210 21.3 225 19C240 16.7 255 18.3 270 20.5C285 22.7 300 25.3 315 27.2C330 29 345 30 360 30.2C375 30.3 390 29.7 405 30C420 30.3 435 31.7 450 30.8C465 30 480 27 495 24C510 21 525 18 540 16.7C555 15.3 570 15.7 585 19.2C600 22.7 615 29.3 630 32.3C645 35.3 660 34.7 675 30.8C690 27 705 20 720 18.8C735 17.7 750 22.3 765 23.5C780 24.7 795 22.3 810 20C825 17.7 840 15.3 855 14.5C870 13.7 885 14.3 892.5 14.7L900 15L900 0L892.5 0C885 0 870 0 855 0C840 0 825 0 810 0C795 0 780 0 765 0C750 0 735 0 720 0C705 0 690 0 675 0C660 0 645 0 630 0C615 0 600 0 585 0C570 0 555 0 540 0C525 0 510 0 495 0C480 0 465 0 450 0C435 0 420 0 405 0C390 0 375 0 360 0C345 0 330 0 315 0C300 0 285 0 270 0C255 0 240 0 225 0C210 0 195 0 180 0C165 0 150 0 135 0C120 0 105 0 90 0C75 0 60 0 45 0C30 0 15 0 7.5 0L0 0Z" fill="#420fe7"></path></svg>